
<svg xmlns="http://www.w3.org/2000/svg" version="1.1" xmlns:xlink="http://www.w3.org/1999/xlink" preserveAspectRatio="none" x="0px" y="0px" width="100px" height="100px" viewBox="0 0 100 100">
<defs>
<path id="Layer11_0_1_STROKES" stroke="#343434" stroke-width="3" stroke-linejoin="round" stroke-linecap="round" fill="none" d="
M 98.4 50
Q 98.4 70.05 84.2 84.2 70.05 98.4 50 98.4 29.95 98.4 15.75 84.2 1.6 70.05 1.6 50 1.6 29.95 15.75 15.75 29.95 1.6 50 1.6 70.05 1.6 84.2 15.75 98.4 29.95 98.4 50 Z"/>

<path id="Layer10_0_1_STROKES" stroke="#343434" stroke-width="3" stroke-linejoin="round" stroke-linecap="round" fill="none" d="
M 28.15 46.3
Q 28.65 46.25 29.15 46.25 34.75 46.25 38.7 50.2 42.65 54.15 42.65 59.75 42.65 65.35 38.7 69.3 34.75 73.25 29.15 73.25 23.55 73.25 19.6 69.3 15.65 65.35 15.65 59.75 15.65 54.15 19.6 50.2 23.2 46.6 28.15 46.3
L 28.15 38 58.85 53.55
Q 59.75 51.75 61.3 50.2 62.7 48.8 64.3 47.9
L 51.4 26.75 45.8 26.75
M 64.3 47.9
Q 67.2 46.25 70.85 46.25 76.45 46.25 80.4 50.2 84.35 54.15 84.35 59.75 84.35 65.35 80.4 69.3 76.45 73.25 70.85 73.25 65.25 73.25 61.3 69.3 57.35 65.35 57.35 59.75 57.35 56.3 58.85 53.55
L 71.65 60 64.3 47.9 Z
M 28.15 59.25
L 28.15 46.3"/>
</defs>

<g transform="matrix( 1, 0, 0, 1, 0,0) ">
<use xlink:href="#Layer11_0_1_STROKES"/>
</g>

<g transform="matrix( 1, 0, 0, 1, 0,0) ">
<use xlink:href="#Layer10_0_1_STROKES"/>
</g>
</svg>
