
<svg xmlns="http://www.w3.org/2000/svg" version="1.1" xmlns:xlink="http://www.w3.org/1999/xlink" preserveAspectRatio="none" x="0px" y="0px" width="100px" height="100px" viewBox="0 0 100 100">
<defs>
<g id="Layer7_0_FILL">
<path fill="#343434" stroke="none" d="
M 85.35 85.35
Q 100 70.7 100 50 100 29.3 85.35 14.65 70.7 0 50 0 29.3 0 14.65 14.65 0 29.3 0 50 0 70.7 14.65 85.35 29.3 100 50 100 70.7 100 85.35 85.35 Z"/>
</g>

<path id="Layer2_0_1_STROKES" stroke="#FFFFFF" stroke-width="3" stroke-linejoin="round" stroke-linecap="round" fill="none" d="
M 17.3 54.8
Q 27.55 53.25 34.25 48.9 25 42.85 22.45 31.55
M 83.35 75.05
L 78.15 63.9 57.6 64 52.45 75.05
M 54.9 64
L 57.6 64 67.9 41.95 78.15 63.9 79.85 63.9
M 15.55 28.55
L 52.55 28.55
M 51.2 54.8
Q 40.95 53.25 34.25 48.9 43.45 42.85 46.05 31.55"/>
</defs>

<g transform="matrix( 1, 0, 0, 1, 0,0) ">
<use xlink:href="#Layer7_0_FILL"/>
</g>

<g transform="matrix( 1, 0, 0, 1, 0,0) ">
<use xlink:href="#Layer2_0_1_STROKES"/>
</g>
</svg>
