
<svg xmlns="http://www.w3.org/2000/svg" version="1.1" xmlns:xlink="http://www.w3.org/1999/xlink" preserveAspectRatio="none" x="0px" y="0px" width="100px" height="100px" viewBox="0 0 100 100">
<defs>
<path id="Layer11_0_1_STROKES" stroke="#AAAAAA" stroke-width="3" stroke-linejoin="round" stroke-linecap="round" fill="none" d="
M 98.4 50
Q 98.4 70.05 84.2 84.2 70.05 98.4 50 98.4 29.95 98.4 15.75 84.2 1.6 70.05 1.6 50 1.6 29.95 15.75 15.75 29.95 1.6 50 1.6 70.05 1.6 84.2 15.75 98.4 29.95 98.4 50 Z"/>

<path id="Layer9_0_1_STROKES" stroke="#AAAAAA" stroke-width="3" stroke-linejoin="round" stroke-linecap="round" fill="none" d="
M 65.55 26.8
L 57.55 26.8 57.55 35.8
M 48.55 26.8
L 57.55 26.8 57.55 19.8
M 16.05 31.05
L 28.8 20.05 28.8 47.8
M 43.05 57.8
L 37.55 57.8 37.55 74.55
M 21.05 57.8
L 26.8 57.8 37.55 57.8
M 26.8 57.8
L 26.8 74.55
M 80.8 61.05
L 73.3 61.05 73.3 74.05
M 73.3 56.55
L 73.3 61.05 58.05 61.05 70.8 42.55"/>
</defs>

<g transform="matrix( 1, 0, 0, 1, 0,0) ">
<use xlink:href="#Layer11_0_1_STROKES"/>
</g>

<g transform="matrix( 1, 0, 0, 1, 0,0) ">
<use xlink:href="#Layer9_0_1_STROKES"/>
</g>
</svg>
