
<svg xmlns="http://www.w3.org/2000/svg" version="1.1" xmlns:xlink="http://www.w3.org/1999/xlink" preserveAspectRatio="none" x="0px" y="0px" width="100px" height="100px" viewBox="0 0 100 100">
<defs>
<g id="Layer6_0_FILL">
<path fill="#343434" stroke="none" d="
M 85.35 85.35
Q 100 70.7 100 50 100 29.3 85.35 14.65 70.7 0 50 0 29.3 0 14.65 14.65 0 29.3 0 50 0 70.7 14.65 85.35 29.3 100 50 100 70.7 100 85.35 85.35 Z"/>
</g>

<path id="Layer5_0_1_STROKES" stroke="#FFFFFF" stroke-width="3" stroke-linejoin="round" stroke-linecap="round" fill="none" d="
M 45.55 72.9
L 49.55 72.9 50.15 72.7 50.15 65.3 40.55 65.3 40.55 72.5 21.35 72.5 21.35 27.1 40.55 27.1 40.55 33.1 78.55 33.1 78.55 65.3 63.75 65.3 63.75 72.9 69.15 72.9
M 49.55 72.9
L 59.9 72.875 50.15 72.7
M 59.9 72.875
L 63.75 72.9
M 63.75 65.3
L 50.15 65.3
M 40.55 65.3
L 34.95 65.3 34.95 33.1 40.55 33.1"/>
</defs>

<g transform="matrix( 1, 0, 0, 1, 0,0) ">
<use xlink:href="#Layer6_0_FILL"/>
</g>

<g transform="matrix( 1, 0, 0, 1, 0,0) ">
<use xlink:href="#Layer5_0_1_STROKES"/>
</g>
</svg>
