
<svg xmlns="http://www.w3.org/2000/svg" version="1.1" xmlns:xlink="http://www.w3.org/1999/xlink" preserveAspectRatio="none" x="0px" y="0px" width="100px" height="100px" viewBox="0 0 100 100">
<defs>
<g id="Layer7_0_FILL">
<path fill="#343434" stroke="none" d="
M 85.35 85.35
Q 100 70.7 100 50 100 29.3 85.35 14.65 70.7 0 50 0 29.3 0 14.65 14.65 0 29.3 0 50 0 70.7 14.65 85.35 29.3 100 50 100 70.7 100 85.35 85.35 Z"/>
</g>

<path id="Layer1_0_1_STROKES" stroke="#FFFFFF" stroke-width="3" stroke-linejoin="round" stroke-linecap="round" fill="none" d="
M 57.55 36.1
Q 57.55 31.7 60.7 28.6 63.75 25.5 68.15 25.5 69.1 25.5 69.9 25.65
L 64.25 31.3 73.05 40.1 78.7 34.45
Q 78.8 35.3 78.8 36.15 78.8 40.55 75.7 43.65 72.6 46.75 68.2 46.75 65.45 46.75 63.2 45.6
L 55.15 53.7 70.45 69 65.8 73.65 50.5 58.35 34.4 74.5 29.7 69.8 45.85 53.7 34.1 41.95 28.7 47.35 21.2 39.85 31.85 29.2 46.85 29.25 38.75 37.3 50.5 49.05 58.65 41
Q 57.519921875 38.784375 57.55 36.1 Z
M 63.2 45.6
Q 61.85 44.9 60.65 43.7 59.4001953125 42.4501953125 58.65 41
M 38.75 37.3
L 34.1 41.95
M 50.5 58.35
L 45.85 53.7
M 50.5 49.05
L 55.15 53.7"/>
</defs>

<g transform="matrix( 1, 0, 0, 1, 0,0) ">
<use xlink:href="#Layer7_0_FILL"/>
</g>

<g transform="matrix( 1, 0, 0, 1, 0,0) ">
<use xlink:href="#Layer1_0_1_STROKES"/>
</g>
</svg>
